<svg width="27" height="25" viewBox="0 0 27 25" fill="none" xmlns="http://www.w3.org/2000/svg">
<g id="Group">
<path id="Vector" d="M14.1711 21.661H13.3366C13.2007 20.4124 12.1401 19.4355 10.8546 19.4355H5.83645C4.55093 19.4355 3.49144 20.4124 3.35452 21.661H2.51996C1.12904 21.661 0 22.7901 0 24.181V24.4429C0 24.7493 0.249932 24.9992 0.556369 24.9992H16.1347C16.4411 24.9992 16.6911 24.7493 16.6911 24.4429V24.181C16.6911 22.7901 15.562 21.661 14.1711 21.661ZM1.14317 23.8865C1.279 23.2519 1.84406 22.7738 2.51996 22.7738H14.1701C14.846 22.7738 15.411 23.2519 15.5468 23.8865H1.14317Z" fill="black"/>
<path id="Vector_2" d="M26.8397 18.6726C26.8092 18.1054 26.5615 17.5816 26.1355 17.2013L17.1847 9.15565L18.5788 7.60391C18.6766 7.61803 18.7766 7.62564 18.8766 7.62564C19.4612 7.62564 20.0426 7.38875 20.462 6.9215C20.8261 6.5151 21.0075 6.00652 21.0075 5.49689C21.0075 4.91226 20.7684 4.33091 20.3012 3.91146L16.5521 0.545984C16.1294 0.164565 15.5849 -0.0299414 15.0145 0.00374678C14.4472 0.0319992 13.9235 0.281931 13.5431 0.704633C13.165 1.13059 12.9705 1.67502 13.0009 2.24333C13.0096 2.38568 13.0313 2.52151 13.065 2.65518L7.43176 8.91989C6.7526 8.82536 6.03759 9.05899 5.54534 9.60448C5.16717 10.0304 4.97267 10.5749 5.0031 11.1432C5.03353 11.7137 5.28454 12.2342 5.70724 12.6145L9.45411 15.9831C9.86051 16.3471 10.3691 16.5285 10.8787 16.5285C11.4634 16.5285 12.0447 16.2895 12.4641 15.8222C12.9564 15.2745 13.1096 14.5399 12.9423 13.8749L14.3365 12.3253L23.2873 20.3721C23.6829 20.7253 24.1828 20.9176 24.7087 20.9176C24.7478 20.9176 24.7869 20.9176 24.826 20.9143C25.3966 20.8839 25.9171 20.6329 26.2974 20.2102C26.6788 19.7875 26.8712 19.242 26.8397 18.6726ZM13.8791 11.1672L12.3577 12.8613L12.3023 12.8135V12.8102L8.55432 9.44477C8.55432 9.44477 8.55432 9.44151 8.55106 9.44151L8.49782 9.39369L13.6498 3.66253L14.6626 4.57531L17.45 7.08223H17.4532L17.5065 7.13004L15.9851 8.82413L13.8791 11.1672Z" fill="#055899"/>
<path id="Vector_3" d="M0.290021 11.3022L3.35005 12.9713C3.43481 13.0169 3.52609 13.0387 3.61628 13.0387C3.81297 13.0387 4.00421 12.9344 4.10527 12.7485C4.25197 12.479 4.15309 12.1411 3.8836 11.9933L0.823568 10.3242C0.554077 10.1764 0.216124 10.2764 0.0683526 10.5459C-0.0794329 10.8165 0.0205271 11.1544 0.290021 11.3022Z" fill="#055899"/>
<path id="Vector_4" d="M3.59962 16.7391L1.37414 18.13C1.11334 18.293 1.034 18.6364 1.19702 18.8961C1.30242 19.0656 1.48388 19.158 1.66862 19.158C1.76968 19.158 1.87074 19.1308 1.96311 19.0732L4.18858 17.6823C4.44938 17.5193 4.52872 17.1759 4.36571 16.9151C4.20271 16.6554 3.86042 16.576 3.59962 16.7391Z" fill="#055899"/>
<path id="Vector_5" d="M0.556369 15.2631H3.6164C3.92393 15.2631 4.17277 15.0143 4.17277 14.7068C4.17277 14.3992 3.92392 14.1504 3.6164 14.1504H0.556369C0.248836 14.1504 0 14.3992 0 14.7068C0 15.0143 0.248844 15.2631 0.556369 15.2631Z" fill="#055899"/>
</g>
</svg>
